PathFileType	4	(X/Y/Z)	./resultDataOpenSim/trcMotMarkerGrf/sub10/qtm-03-08.trc
DataRate	CameraRate	NumFrames	NumMarkers	Units	OrigDataRate	OrigDataStartFrame	OrigNumFrames
250.000000	250.000000	5	24	m	250.000000	187	496
Frame#	Time	L.Toe.Tip			R.Toe.Tip			L.Ankle.Lat			R.Ankle.Lat			L.Ankle.Med			R.Ankle.Med			L.Heel			R.Heel			L.Knee.Lat			R.Knee.Lat			L.Knee.Med			R.Knee.Med			L.Thigh.Upper			R.Thigh.Upper			L.ASIS			R.ASIS			V.Sacral			L.Acromium			R.Acromium			C7			L.Elbow			R.Elbow			L.Wrist.Lat			R.Wrist.Lat
		X1	Y1	Z1	X2	Y2	Z2	X3	Y3	Z3	X4	Y4	Z4	X5	Y5	Z5	X6	Y6	Z6	X7	Y7	Z7	X8	Y8	Z8	X9	Y9	Z9	X10	Y10	Z10	X11	Y11	Z11	X12	Y12	Z12	X13	Y13	Z13	X14	Y14	Z14	X15	Y15	Z15	X16	Y16	Z16	X17	Y17	Z17	X18	Y18	Z18	X19	Y19	Z19	X20	Y20	Z20	X21	Y21	Z21	X22	Y22	Z22	X23	Y23	Z23	X24	Y24	Z24

187	0.744	0.07185138	-0.0068920681	-0.11871933	-0.69361736	0.038453002	0.048288037	-0.061111253	0.019054044	-0.16001317	-0.79402762	0.13525681	0.071745572	-0.067069273	0.036705404	-0.077004697	-0.75430864	0.13339049	-0.0087346347	-0.12911019	-0.012996626	-0.12611501	-0.84368222	0.14192874	0.017656728	-0.055661162	0.40934324	-0.16679118	-0.48521657	0.38658698	0.097082647	-0.053746277	0.38277728	-0.045850141	-0.44857749	0.36917072	-0.025654946	-0.20253459	0.76133007	-0.22014905	-0.35820904	0.76594443	0.14170245	-0.17889831	0.86148354	-0.13112635	-0.24749528	0.84688832	0.10517465	-0.40386426	0.8704244	-0.078481705	-0.28791221	1.3148526	-0.21193687	-0.27667531	1.3230553	0.11448991	-0.36798559	1.3510053	-0.052358017	-0.47309451	1.0336401	-0.25883554	-0.24412617	0.96883587	0.18697151	-0.4630273	0.79732156	-0.31423952	-0.0038528917	0.89875735	0.15609575
188	0.748	0.072517919	-0.0073940148	-0.11860981	-0.69261903	0.038248897	0.048107766	-0.06054865	0.019144824	-0.15950269	-0.78811834	0.13997364	0.071484	-0.066665219	0.036683801	-0.076522498	-0.74758489	0.1361484	-0.008174214	-0.12882685	-0.012715051	-0.12571107	-0.83692625	0.14829027	0.01706458	-0.048131426	0.40950197	-0.16608419	-0.47486426	0.38510823	0.097141296	-0.046644581	0.3838216	-0.045103279	-0.43872614	0.36712288	-0.025320312	-0.19622748	0.76155585	-0.22084371	-0.34960985	0.76384492	0.14170019	-0.17183979	0.86139611	-0.13246748	-0.23924356	0.84539676	0.10378417	-0.3969888	0.86993416	-0.078154889	-0.28084747	1.3136642	-0.21332535	-0.26984609	1.3227858	0.11313617	-0.36105232	1.3503855	-0.0539155	-0.46452242	1.0317505	-0.25990139	-0.24029676	0.9681148	0.18564752	-0.45545527	0.79548232	-0.31506641	-0.00019807723	0.8967369	0.15604627
189	0.752	0.073003855	-0.0077631789	-0.11852571	-0.69150489	0.038031278	0.047946091	-0.06007483	0.019126137	-0.15913647	-0.78155179	0.14469062	0.071113012	-0.066248982	0.036618026	-0.076133417	-0.74037106	0.1389864	-0.0077502168	-0.1286346	-0.01252269	-0.12543299	-0.82913182	0.15458076	0.01619362	-0.041035973	0.40942437	-0.16535335	-0.46404338	0.38362521	0.097355194	-0.03984205	0.38464461	-0.044502126	-0.42842954	0.36492194	-0.024895475	-0.18992363	0.76176449	-0.22152145	-0.34099048	0.76179891	0.14171159	-0.16483602	0.86144571	-0.13380498	-0.23109488	0.84398261	0.10234823	-0.3901232	0.86940219	-0.078114061	-0.27378571	1.3125677	-0.21468275	-0.26303577	1.3225051	0.11177104	-0.35414026	1.3498285	-0.055417218	-0.4559387	1.0299112	-0.26108408	-0.2365197	0.96744299	0.18439437	-0.44769523	0.79369158	-0.3158207	0.00334025	0.89460385	0.15603559
190	0.756	0.073326373	-0.0080292394	-0.11843563	-0.6902846	0.037800113	0.047817111	-0.059679943	0.019046116	-0.15891821	-0.77427371	0.14933936	0.070656861	-0.06591857	0.036528242	-0.075869181	-0.73262005	0.14171321	-0.0073760957	-0.12851008	-0.012400174	-0.12531412	-0.82039709	0.1607693	0.015099313	-0.034439838	0.4090683	-0.16465548	-0.4528303	0.3821329	0.097714032	-0.033431039	0.38515884	-0.044056267	-0.41764953	0.36254715	-0.02440037	-0.18361119	0.7619449	-0.22221417	-0.33236388	0.75981394	0.14171289	-0.15791079	0.86162527	-0.13513384	-0.22306562	0.84263393	0.1008806	-0.38329103	0.86885365	-0.078228783	-0.26673191	1.3115717	-0.21600435	-0.25626414	1.3222194	0.11039787	-0.347268	1.3493362	-0.056857422	-0.44733898	1.0281309	-0.26242858	-0.2327973	0.96681941	0.18319404	-0.43973331	0.79194792	-0.31650639	0.0067680984	0.8923525	0.15604493
191	0.76	0.073552151	-0.0082299076	-0.11835672	-0.68898786	0.03754777	0.047729344	-0.059336471	0.018950933	-0.15880633	-0.76631543	0.15384773	0.070142897	-0.065675179	0.036415492	-0.075705442	-0.72423699	0.14411801	-0.0069268608	-0.12841872	-0.012312215	-0.1253144	-0.81089466	0.16686076	0.013883701	-0.028371582	0.40842628	-0.16404721	-0.4413455	0.38061015	0.098184118	-0.027512654	0.38532843	-0.043751454	-0.40634508	0.35998546	-0.023844864	-0.17729843	0.76209797	-0.22293843	-0.32373749	0.75789075	0.14167808	-0.15108053	0.86191324	-0.13646624	-0.21511566	0.84134413	0.099359194	-0.3765156	0.86830945	-0.078392078	-0.25968734	1.3106835	-0.21728616	-0.24953214	1.3219362	0.10902744	-0.34045512	1.3489084	-0.058233123	-0.43871022	1.0264079	-0.26385629	-0.22910878	0.96625269	0.18204798	-0.43150078	0.79025091	-0.31718006	0.010074842	0.88997269	0.15606245
